# xmcd CD database file
#
# Track frame offsets:
#	150
#	25384
#	57631
#	78927
#	92270
#	117690
#	135236
#	163282
#	187803
#	209130
#	225550
#
# Disc length: 3075 seconds
#
# Revision: 0
# Processed by: cddbd v1.5.2PL0 Copyright (c) Steve Scherf et al.
# Submitted via: CDex 1.70beta2
#
DISCID=930c010b
DTITLE=Chicken soup for the soul - Passion
DYEAR=2002
DGENRE=New Age
TTITLE0=Passion Suite
TTITLE1=Meet me in Rio
TTITLE2=Cuban Breeze
TTITLE3=After the Fire
TTITLE4=Voices in the dark
TTITLE5=Flames Of Love
TTITLE6=Tropical Heat
TTITLE7=Beautiful Breeze
TTITLE8=Stroll In Central Park
TTITLE9=Two To Tango
TTITLE10=Passion
EXTD=YEAR: 2002
EXTT0=
EXTT1=
EXTT2=
EXTT3=
EXTT4=
EXTT5=
EXTT6=
EXTT7=
EXTT8=
EXTT9=
EXTT10=
PLAYORDER=
